# xmcd CD database file
#
# Track frame offsets:
#	150
#	14178
#	28406
#	41997
#	53717
#	66135
#	78573
#	94676
#	108068
#	128470
#	141861
#	161151
#	180008
#	199312
#	217183
#	230495
#	243327
#	256859
#	268840
#
# Disc length: 3749 seconds
#
# Revision: 1
# Processed by: cddbd v1.5.2PL0 Copyright (c) Steve Scherf et al.
# Submitted via: CDex 1.70beta2
#
DISCID=130ea313
DTITLE=Jack Teagarden - Basin Street Blues CD2
DYEAR=1900
DGENRE=Jazz
TTITLE0=A Hundred Years From Today
TTITLE1=Down In The Dumps
TTITLE2=Stars Fell On Alabama
TTITLE3=Nobody's Sweetheart Now
TTITLE4=Ain't Misbehavin'
TTITLE5=At The Darktown Strutter's Ball
TTITLE6=Every Now And Then
TTITLE7=Barrelhouse Music
TTITLE8=Serenade To A Shylock
TTITLE9=Jack Hits The Road
TTITLE10=St.James Infirmary
TTITLE11=The World Is Waiting For The Sunrise
TTITLE12=The Big Eight Blues
TTITLE13=Shine
TTITLE14=Casanova's Lament
TTITLE15=Mighty Lak' A Rose
TTITLE16=Stars Fell On Alabama
TTITLE17='Deed I Do
TTITLE18=Clambake In B Flat
EXTD=
EXTT0=
EXTT1=
EXTT2=
EXTT3=
EXTT4=
EXTT5=
EXTT6=
EXTT7=
EXTT8=
EXTT9=
EXTT10=
EXTT11=
EXTT12=
EXTT13=
EXTT14=
EXTT15=
EXTT16=
EXTT17=
EXTT18=
PLAYORDER=
